<?xml version="1.0" encoding="iso-8859-1"?>
<!-- Generator: Adobe Illustrator 16.0.0, SVG Export Plug-In . SVG Version: 6.00 Build 0)  -->
<!DOCTYPE svg PUBLIC "-//W3C//DTD SVG 1.1//EN" "http://www.w3.org/Graphics/SVG/1.1/DTD/svg11.dtd">
<svg xmlns="http://www.w3.org/2000/svg" xmlns:xlink="http://www.w3.org/1999/xlink" version="1.1" id="Capa_1" x="0px" y="0px" width="512px" height="512px" viewBox="0 0 792 792" style="enable-background:new 0 0 792 792;" xml:space="preserve">
<g>
	<g id="Pin_1_">
		<g>
			<path d="M396,173.25c-68.359,0-123.75,55.391-123.75,123.75S327.641,420.75,396,420.75S519.75,365.359,519.75,297     S464.359,173.25,396,173.25z M396,346.5c-27.299,0-49.5-22.226-49.5-49.5s22.201-49.5,49.5-49.5c27.299,0,49.5,22.201,49.5,49.5     S423.299,346.5,396,346.5z M396,0C231.982,0,99,133.006,99,297c0,59.351,17.424,114.617,47.396,161.023L344,763.686     C355.014,780.714,374.195,792,396,792s40.986-11.286,52-28.339l197.604-305.662C675.576,411.617,693,356.351,693,297     C693,133.006,560.043,0,396,0z M583.233,417.706L396,707.355L208.766,417.73c-23.24-35.962-35.516-77.715-35.516-120.73     c0-122.834,99.94-222.75,222.75-222.75S618.75,174.166,618.75,297C618.75,340.016,606.474,381.769,583.233,417.706z" fill="#FFFFFF"/>
		</g>
	</g>
</g>
<g>
</g>
<g>
</g>
<g>
</g>
<g>
</g>
<g>
</g>
<g>
</g>
<g>
</g>
<g>
</g>
<g>
</g>
<g>
</g>
<g>
</g>
<g>
</g>
<g>
</g>
<g>
</g>
<g>
</g>
</svg>
